<?xml version="1.0" standalone="no"?>
<!DOCTYPE svg PUBLIC "-//W3C//DTD SVG 20010904//EN"
 "http://www.w3.org/TR/2001/REC-SVG-20010904/DTD/svg10.dtd">
<svg version="1.0" xmlns="http://www.w3.org/2000/svg"
 width="98.000000pt" height="100.000000pt" viewBox="0 0 98.000000 100.000000"
 preserveAspectRatio="xMidYMid meet">

<g transform="translate(0.000000,100.000000) scale(0.100000,-0.100000)"
fill="#000000" stroke="none">
<path d="M751 909 l-85 -89 38 -37 c21 -21 47 -55 57 -75 11 -21 23 -38 27
-38 4 0 49 42 100 93 l92 92 0 73 0 72 -72 -1 -73 -2 -84 -88z"/>
<path d="M380 836 c-87 -23 -149 -74 -194 -160 -31 -59 -32 -72 -5 -86 25 -14
22 -16 38 38 15 52 70 116 123 143 60 30 176 28 231 -4 91 -54 127 -117 127
-224 0 -84 -19 -124 -99 -208 -32 -33 -77 -95 -101 -137 -52 -91 -83 -110
-144 -84 -28 12 -37 12 -45 2 -18 -21 22 -48 76 -53 65 -6 100 18 142 96 18
34 64 97 103 139 86 95 109 139 116 219 12 156 -74 279 -224 318 -68 18 -84
18 -144 1z"/>
<path d="M408 745 c-56 -14 -104 -48 -124 -87 -13 -25 -14 -32 -2 -39 19 -13
21 -12 43 21 25 38 89 70 142 70 48 0 114 -43 139 -91 21 -41 21 -107 0 -149
-10 -21 -13 -37 -7 -43 25 -25 61 47 61 123 0 133 -123 228 -252 195z"/>
<path d="M114 264 l-114 -119 0 -72 0 -73 68 0 69 0 129 136 c71 75 130 139
131 142 2 6 -130 88 -160 101 -5 2 -60 -50 -123 -115z"/>
</g>
</svg>